<?xml version="1.0" encoding="iso-8859-1"?>
<!-- Uploaded to: SVG Repo, www.svgrepo.com, Generator: SVG Repo Mixer Tools -->
<svg height="800px" width="800px" version="1.1" id="Layer_1" xmlns="http://www.w3.org/2000/svg" xmlns:xlink="http://www.w3.org/1999/xlink" 
	 viewBox="0 0 512.001 512.001" xml:space="preserve">
<path style="fill:#FFF3E6;" d="M473.069,251.139c16.672,10.919,21.654,33.117,11.42,50.203
	c-22.001,36.717-42.188,61.906-89.639,116.708c-30.942,35.749-58.784,58.088-84.853,70.519
	c57.272-78.023,114.86-192.307,111.978-287.732C438.984,225.243,457.756,241.122,473.069,251.139z"/>
<path style="fill:#B3B3B3;" d="M438.777,29.792c23.938,26.787,25.21,71.748,2.849,100.428
	c-9.179,11.779-27.831,18.131-46.624,21.546c-9.614-18.01-19.653-32.204-30.332-43.34c-7.755-8.103-15.857-14.595-24.373-19.751
	c1.642-22.11,5.699-43.993,14.65-55.478C377.307,4.528,414.84,2.994,438.777,29.792z"/>
<path style="fill:#666666;" d="M421.975,200.837c2.882,95.425-54.706,209.708-111.978,287.732
	c-18.749,8.951-36.586,12.779-53.999,12.779c26.907,0,48.713-13.595,48.713-30.355c0-0.587-0.021-1.142-0.087-1.697
	c-7.058-144.333-12.692-288.135,60.046-360.872c10.68,11.137,20.719,25.33,30.332,43.34c2.653,4.949,5.264,10.18,7.853,15.726
	c5.873,12.572,12.355,23.633,19.12,33.334L421.975,200.837L421.975,200.837z"/>
<path style="fill:#FFF3E6;" d="M340.297,88.675c8.516,5.156,16.618,11.648,24.373,19.751
	c-72.737,72.737-67.104,216.538-60.046,360.872c-1.436-15.248-22.644-17.88-48.615-17.88h-0.011
	c-25.95,0-47.169,2.621-48.615,17.869c7.047-144.322,12.681-288.123-60.056-360.861c7.755-8.114,15.857-14.595,24.383-19.751v-0.011
	c24.068-14.574,51.508-18.586,84.288-18.586h0.011C288.789,70.077,316.228,74.09,340.297,88.675z"/>
<path style="fill:#FBCDCB;" d="M304.624,469.297c0.033,0.566,0.054,1.131,0.087,1.697c0,16.76-21.807,30.355-48.713,30.355
	c-26.896,0-48.703-13.595-48.703-30.355c0.033-0.566,0.054-1.142,0.087-1.707c1.447-15.248,22.665-17.869,48.615-17.869h0.011
	C281.98,451.417,303.188,454.05,304.624,469.297z"/>
<path style="fill:#666666;" d="M207.296,470.994c0,16.76,21.807,30.355,48.703,30.355c-15.759,0-31.877-3.133-48.703-10.376
	c-57.272-78.023-120.156-194.71-117.274-290.135v-0.011c6.765-9.702,13.247-20.762,19.12-33.334
	c2.588-5.546,5.199-10.778,7.853-15.726c9.614-18.01,19.653-32.204,30.332-43.34c72.737,72.737,67.104,216.538,60.056,360.861
	C207.318,469.841,207.296,470.407,207.296,470.994z"/>
<path style="fill:#FFF3E6;" d="M207.296,490.973c-27.581-11.854-57.098-34.749-90.15-72.923
	c-47.451-54.804-67.637-79.991-89.628-116.708c-10.245-17.086-5.254-39.283,11.42-50.203c15.303-10.017,34.074-25.896,51.084-50.3
	C87.139,296.262,150.024,412.949,207.296,490.973z"/>
<path style="fill:#B3B3B3;" d="M171.71,88.664v0.011c-8.527,5.156-16.629,11.637-24.383,19.751
	c-10.68,11.137-20.719,25.33-30.332,43.34c-18.793-3.415-37.435-9.767-46.624-21.546C48.008,101.541,49.28,56.58,73.218,29.792
	c23.938-26.798,61.47-25.264,83.842,3.404C166.011,44.682,170.067,66.553,171.71,88.664z"/>
<path d="M81.284,194.734c-0.02,0.03-0.036,0.062-0.058,0.092c-13.548,19.417-29.738,35.366-48.125,47.402
	c-21.52,14.095-27.986,42.467-14.722,64.588c22.339,37.298,42.243,62.228,90.714,118.208c32.789,37.871,63.535,62.645,93.991,75.735
	c17.575,7.566,34.883,11.243,52.914,11.243c19.947,0,39.111-4.52,58.583-13.817c0.034-0.016,0.069-0.034,0.103-0.05
	c0.028-0.014,0.056-0.027,0.084-0.04c28.582-13.673,57.415-37.576,88.135-73.07c48.465-55.975,68.37-80.903,90.725-118.208
	c13.254-22.128,6.787-50.498-14.728-64.592c-18.377-12.02-34.564-27.96-48.116-47.376c-0.021-0.031-0.039-0.064-0.061-0.095
	c-0.004-0.006-0.007-0.013-0.012-0.019c-6.783-9.728-12.909-20.41-18.204-31.745c-0.602-1.289-1.208-2.562-1.815-3.825
	c18.41-4.979,31.612-12.485,39.334-22.395c12.335-15.819,18.793-36.337,18.185-57.774c-0.608-21.478-8.241-41.473-21.49-56.299
	C433.105,7.453,415.199-0.603,396.281,0.035c-19.186,0.64-36.848,10.091-49.736,26.614c-7.414,9.513-12.439,24.445-15.247,45.389
	c-20.065-8.758-43.585-12.614-75.288-12.614c-0.002,0-0.003,0-0.005,0s-0.003,0-0.005,0c-31.701,0-55.221,3.854-75.288,12.608
	c-2.808-20.941-7.834-35.87-15.252-45.39C152.567,10.12,134.9,0.671,115.712,0.034c-18.907-0.62-36.82,7.419-50.435,22.66
	c-13.25,14.827-20.882,34.821-21.491,56.299c-0.608,21.437,5.85,41.956,18.187,57.777c7.732,9.909,20.933,17.415,39.332,22.391
	c-0.607,1.261-1.212,2.533-1.813,3.821C94.194,174.322,88.069,185.004,81.284,194.734z M118.795,171.996
	c2.499-5.357,5.051-10.47,7.596-15.214c6.765-12.674,13.723-23.381,21.102-32.453c26.346,30.999,42.477,76.568,49.19,138.825
	c6.153,57.05,4.167,119.768,0.577,194.903c-36.685-54.801-98.074-160.738-96.645-253.867
	C107.355,194.205,113.467,183.4,118.795,171.996z M177.221,97.79c0.12-0.072,0.24-0.148,0.356-0.226
	c19.661-11.797,43.15-16.836,78.42-16.836c0.002,0,0.003,0,0.005,0s0.003,0,0.005,0c35.481,0,59.038,5.101,78.772,17.059
	c5.242,3.173,10.184,6.831,14.955,11.048c-30.071,34.415-48.3,84.294-55.603,152.037c-5.902,54.746-4.532,113.883-1.349,183.631
	c-0.089-0.027-0.174-0.055-0.264-0.082c-8.601-2.528-19.862-3.655-36.512-3.655h-0.011c-16.643,0-27.897,1.125-36.495,3.647
	c-0.096,0.028-0.186,0.059-0.282,0.087c3.179-69.721,4.547-128.879-1.356-183.631c-7.305-67.744-25.535-117.623-55.606-152.037
	C167.02,104.625,171.966,100.968,177.221,97.79z M217.955,471.125l0.048-0.944c0.409-3.083,5.984-8.111,37.995-8.111
	c0.002,0,0.003,0,0.005,0s0.003,0,0.005,0c32.06,0,37.603,5.046,37.996,8.128l0.047,0.921c-0.145,9.268-16.369,19.576-38.054,19.576
	C234.322,490.696,218.106,480.392,217.955,471.125z M125.198,411.078c-47.557-54.925-67.021-79.276-88.545-115.214
	c-7.363-12.278-3.795-28.01,8.118-35.813c12.879-8.43,24.774-18.535,35.569-30.193c3.482,38.105,15.541,80.639,36.021,126.887
	c16.475,37.204,35.69,70.79,53.437,98.434C155.404,443.515,140.605,428.873,125.198,411.078z M467.232,260.049
	c11.911,7.801,15.477,23.535,8.12,35.817c-21.538,35.942-41.001,60.291-88.557,115.214c-12.787,14.774-25.14,27.358-37.192,37.874
	c15.346-24.695,31.674-54.255,46.08-87.342c2.348-5.394-0.12-11.67-5.514-14.019c-5.391-2.344-11.67,0.12-14.019,5.514
	c-19.292,44.31-42.163,82.128-61.163,109.969c-3.747-77.405-5.96-141.61,0.327-199.921c6.712-62.258,22.843-107.827,49.19-138.827
	c7.376,9.068,14.336,19.782,21.111,32.471c2.537,4.732,5.089,9.844,7.588,15.201c5.326,11.401,11.439,22.208,18.176,32.191
	c0.458,28.284-4.514,59.847-14.824,93.892c-1.706,5.631,1.476,11.576,7.107,13.282c1.029,0.312,2.069,0.461,3.091,0.461
	c4.571,0,8.797-2.967,10.19-7.567c7.911-26.123,12.861-50.992,14.819-74.287C442.534,241.585,454.396,251.652,467.232,260.049z
	 M363.345,39.748c8.934-11.453,20.882-17.995,33.645-18.42c12.474-0.423,24.508,5.11,33.845,15.562
	c20.628,23.085,21.701,62.014,2.389,86.783c-5.342,6.854-16.57,12.359-32.685,16.081c-8.803-15.438-18.065-28.151-28.175-38.694
	c-0.048-0.05-0.096-0.096-0.144-0.146c-0.007-0.007-0.013-0.015-0.02-0.022c-0.005-0.005-0.011-0.01-0.016-0.015
	c-6.584-6.857-13.417-12.671-20.729-17.664C354.179,55.339,359.983,44.063,363.345,39.748z M78.769,123.671
	c-19.31-24.767-18.237-63.696,2.393-86.781c9.334-10.452,21.354-15.962,33.84-15.562c12.766,0.424,24.721,6.967,33.656,18.418
	c3.365,4.317,9.171,15.595,11.893,43.465c-7.339,5.005-14.179,10.824-20.747,17.675c-0.003,0.003-0.007,0.006-0.011,0.01
	c-0.004,0.004-0.009,0.01-0.013,0.015c-0.047,0.049-0.095,0.095-0.143,0.145c-10.121,10.554-19.385,23.271-28.183,38.702
	C95.349,136.032,84.118,130.526,78.769,123.671z"/>
<path d="M133.916,273.351c5.883,0,10.652-4.77,10.652-10.652c0-4.974,4.048-9.022,9.022-9.022c4.981,0,9.034,4.048,9.034,9.022
	c0,5.882,4.769,10.652,10.652,10.652c5.883,0,10.652-4.77,10.652-10.652c0-16.721-13.609-30.326-30.338-30.326
	c-16.722,0-30.326,13.604-30.326,30.326C123.264,268.581,128.034,273.351,133.916,273.351z"/>
<path d="M358.404,232.373c-16.722,0-30.327,13.604-30.327,30.326c0,5.882,4.77,10.652,10.652,10.652
	c5.882,0,10.652-4.77,10.652-10.652c0-4.974,4.048-9.022,9.023-9.022s9.023,4.048,9.023,9.022c0,5.882,4.77,10.652,10.652,10.652
	c5.882,0,10.652-4.77,10.652-10.652C388.731,245.978,375.128,232.373,358.404,232.373z"/>
<path d="M400.82,319.698c-5.514-2.053-11.647,0.754-13.697,6.27l-0.474,1.271c-2.063,5.509,0.732,11.648,6.241,13.71
	c1.23,0.461,2.491,0.68,3.732,0.68c4.315,0,8.376-2.641,9.978-6.921l0.491-1.312C409.14,327.881,406.335,321.748,400.82,319.698z"/>
</svg>